HIERARCHY
ROOT Hips
{
    OFFSET 0.000000 0.000000 0.000000
    CHANNELS 6 Xposition Yposition Zposition Zrotation Xrotation Yrotation
    JOINT Spine
    {
        OFFSET -0.000000 7.979263 0.000000
        CHANNELS 3 Zrotation Xrotation Yrotation
        JOINT Spine1
        {
            OFFSET -0.000000 24.719021 0.000000
            CHANNELS 3 Zrotation Xrotation Yrotation
            JOINT Neck
            {
                OFFSET -0.000000 24.617504 2.237955
                CHANNELS 3 Zrotation Xrotation Yrotation
                JOINT Head
                {
                    OFFSET -0.000000 13.623132 -1.946162
                    CHANNELS 3 Zrotation Xrotation Yrotation
                    End Site
                    {
                        OFFSET -0.000000 24.327021 0.000000
                    }
                }
            }
            JOINT LeftShoulder
            {
                OFFSET 3.885773 23.018444 -0.302444
                CHANNELS 3 Zrotation Xrotation Yrotation
                JOINT LeftArm
                {
                    OFFSET 10.447750 0.000000 0.000000
                    CHANNELS 3 Zrotation Xrotation Yrotation
                    JOINT LeftForeArm
                    {
                        OFFSET 29.090096 0.000000 0.000000
                        CHANNELS 3 Zrotation Xrotation Yrotation
                        JOINT LeftHand
                        {
                            OFFSET 28.893339 0.000000 0.000000
                            CHANNELS 3 Zrotation Xrotation Yrotation
                            End Site
                            {
                                OFFSET 14.596213 0.000000 0.000000
                            }
                        }
                    }
                }
            }
            JOINT RightShoulder
            {
                OFFSET -3.864586 23.018444 -0.302444
                CHANNELS 3 Zrotation Xrotation Yrotation
                JOINT RightArm
                {
                    OFFSET -10.447750 0.000000 0.000000
                    CHANNELS 3 Zrotation Xrotation Yrotation
                    JOINT RightForeArm
                    {
                        OFFSET -29.090096 0.000000 0.000000
                        CHANNELS 3 Zrotation Xrotation Yrotation
                        JOINT RightHand
                        {
                            OFFSET -28.893339 0.000000 0.000000
                            CHANNELS 3 Zrotation Xrotation Yrotation
                            End Site
                            {
                                OFFSET -14.596213 0.000000 0.000000
                            }
                        }
                    }
                }
            }
        }
    }
    JOINT LeftUpLeg
    {
        OFFSET 9.730808 0.000000 0.000000
        CHANNELS 3 Zrotation Xrotation Yrotation
        JOINT LeftLeg
        {
            OFFSET -0.000000 -34.800129 0.000000
            CHANNELS 3 Zrotation Xrotation Yrotation
            JOINT LeftFoot
            {
                OFFSET -0.000000 -44.597416 0.000000
                CHANNELS 3 Zrotation Xrotation Yrotation
                JOINT LeftToeBase
                {
                    OFFSET -0.000000 -6.325025 14.596213
                    CHANNELS 3 Zrotation Xrotation Yrotation
                    End Site
                    {
                        OFFSET -0.000000 0.000000 3.892323
                    }
                }
            }
        }
    }
    JOINT RightUpLeg
    {
        OFFSET -9.730808 0.000000 0.000000
        CHANNELS 3 Zrotation Xrotation Yrotation
        JOINT RightLeg
        {
            OFFSET -0.000000 -34.800129 0.000000
            CHANNELS 3 Zrotation Xrotation Yrotation
            JOINT RightFoot
            {
                OFFSET -0.000000 -44.597416 0.000000
                CHANNELS 3 Zrotation Xrotation Yrotation
                JOINT RightToeBase
                {
                    OFFSET -0.000000 -6.325025 14.596213
                    CHANNELS 3 Zrotation Xrotation Yrotation
                    End Site
                    {
                        OFFSET -0.000000 0.000000 3.892323
                    }
                }
            }
        }
    }
}
MOTION
Frames:    14
Frame Time:    0.008333
-241.683624    89.237358    50.008904    -4.147083    -0.218901    92.633575    -3.906709    -12.847659    -0.471290    2.911647    -3.723022    0.061492    8.209858    23.967203    -2.776072    -3.868527    -2.249081    -2.903219    18.826006    2.342558    -17.053944    -26.140989    0.549727    9.656364    3.288766    -2.176971    2.721547    -7.905257    -2.190408    -0.936364    -10.246949    2.380070    -9.653911    16.343267    10.945207    7.497834    -2.276979    0.957729    -2.077127    5.024652    0.999819    1.899674    0.090481    0.936731    -5.960552    -0.012873    1.093088    1.959688    -5.308305    5.073814    10.365420    0.000000    0.000000    0.000000    0.407319    4.593693    -1.910860    1.281755    -2.443317    -4.733346    3.606984    4.662946    -7.009535    0.000000    0.000000    0.000000    
-241.708847    89.240440    49.981110    -4.165580    -0.230154    92.678200    -3.905604    -12.810791    -0.496291    2.914408    -3.783345    0.038921    8.233456    23.984793    -2.799099    -3.901914    -2.250697    -2.929428    18.777185    2.362450    -17.080334    -26.276747    0.280038    9.722723    2.983372    -2.269787    2.577130    -7.713538    -2.272311    -0.958180    -10.223712    2.359792    -9.643757    16.579136    11.001197    7.441055    -2.228884    0.891928    -2.035463    4.961631    0.937316    1.961036    0.075304    0.851462    -5.751801    0.003828    1.179803    1.652273    -5.376355    5.017859    10.419201    0.000000    0.000000    0.000000    0.400340    4.552124    -1.951272    1.278476    -2.433352    -4.797596    3.609072    4.694000    -6.950985    0.000000    0.000000    0.000000    
-241.717575    89.246605    49.961025    -4.175209    -0.220632    92.669792    -3.941495    -12.809378    -0.505941    2.949208    -3.791530    0.034463    8.190854    24.026651    -2.794624    -3.844132    -2.310956    -2.917123    18.690908    2.392315    -17.090950    -26.569010    0.276883    9.761765    2.717673    -1.983697    2.456730    -6.619042    -2.043796    0.032131    -10.222264    2.325929    -9.616329    16.878435    11.114875    7.373390    -2.218878    0.764398    -1.987004    4.947507    0.812866    2.011508    -37.127651    -19.861771    60.490093    0.003828    1.179803    1.652273    -5.376355    5.017859    10.419201    0.000000    0.000000    0.000000    -0.045287    3.801560    -1.929592    1.954156    -0.039957    -4.914888    3.655523    4.721361    -6.906070    0.000000    0.000000    0.000000    
-241.639542    89.292236    49.891449    -3.993322    -0.101967    92.670937    -4.010912    -12.792368    -0.507474    2.930941    -3.606845    0.034859    8.111388    23.942722    -2.781498    -3.755810    -2.185972    -2.897835    18.556486    2.416527    -17.078321    -27.136568    0.782056    9.748559    3.233040    -2.733527    2.535878    -7.073985    -2.810804    0.093367    -10.426543    2.063819    -9.585431    17.395069    11.458959    7.232262    -2.204247    0.653560    -1.978776    4.891281    0.707499    2.154091    -37.753906    -19.584852    59.705322    0.003828    1.179803    1.652273    -5.376355    5.017859    10.419201    0.000000    0.000000    0.000000    -0.445273    3.483000    -1.917249    2.195586    1.347557    -2.738283    3.714073    3.624948    -9.018176    0.000000    0.000000    0.000000    
-241.702957    89.282700    49.884502    -4.106803    -0.113347    92.584747    -4.054314    -12.797923    -0.476997    3.027041    -3.704615    0.072834    8.092005    23.968351    -2.813222    -3.721119    -2.253613    -2.926756    18.447338    2.043858    -16.809166    -27.422583    0.881607    9.624377    2.831681    -2.397246    2.535633    -6.857859    -2.445410    -0.241640    -10.404150    2.093235    -9.568671    17.658253    11.643497    7.173582    -2.200156    0.561676    -1.871801    5.075772    0.616315    2.042278    -37.772888    -19.816477    59.687218    0.003828    1.179803    1.652273    -5.376355    5.017859    10.419201    0.000000    0.000000    0.000000    -0.740939    3.203820    -1.910163    2.595753    1.705774    -0.580603    3.523959    3.131454    -10.993727    0.000000    0.000000    0.000000    
-241.684006    89.285675    49.839722    -4.029331    -0.122581    92.702301    -4.038481    -12.751678    -0.519260    3.004143    -3.644889    0.026849    8.180061    24.011377    -2.781705    -3.772235    -2.355674    -2.895402    18.325085    2.504616    -17.015648    -27.578741    0.459775    9.692150    2.931504    -2.899135    2.454126    -7.374862    -2.935477    -0.409887    -10.394755    2.085126    -9.560015    17.985611    11.892281    7.083874    -2.199830    0.539810    -1.821241    5.191638    0.597160    2.033787    -37.841148    -19.647215    59.343552    0.003828    1.179803    1.652273    -5.376355    5.017859    10.419201    0.000000    0.000000    0.000000    -0.980508    3.083580    -1.905433    2.863824    2.323970    1.200134    3.479530    2.532384    -12.827808    0.000000    0.000000    0.000000    
-241.691681    89.287880    49.812622    -4.000043    -0.132411    92.708702    -4.053518    -12.711967    -0.521653    3.064188    -3.622586    0.026218    7.980323    23.804335    -2.815545    -3.594266    -2.104053    -2.925280    18.176512    2.505723    -16.970985    -28.166489    0.790844    9.632714    3.302148    -3.103753    2.528306    -7.748301    -3.141267    -0.521425    -10.401944    2.112982    -9.555369    18.305504    12.133121    7.018393    -2.170856    0.469724    -1.750325    5.204589    0.529954    2.053348    -37.840946    -19.622831    59.369606    0.003828    1.179803    1.652273    -5.376355    5.017859    10.419201    0.000000    0.000000    0.000000    -1.166930    3.016036    -1.902011    3.089896    2.613937    2.564938    3.370944    2.229246    -14.146832    0.000000    0.000000    0.000000    
-241.709320    89.283821    49.787327    -3.994877    -0.155042    92.717644    -4.045557    -12.673052    -0.524098    3.102842    -3.622106    0.022605    7.903001    23.736689    -2.798426    -3.503955    -2.084301    -2.903298    18.013361    2.144158    -16.697672    -28.365671    0.716359    9.530117    2.981314    -2.827259    2.479968    -7.771033    -2.853799    -0.559239    -10.404821    2.094493    -9.528800    18.637463    12.375020    6.896013    -2.202786    0.337582    -1.643438    5.352902    0.395567    1.913450    -37.851101    -19.642517    59.368828    0.003828    1.179803    1.652273    -5.376355    5.017859    10.419201    0.000000    0.000000    0.000000    -1.305601    2.965757    -1.899632    3.280131    2.778245    3.690300    3.292050    2.009151    -15.228090    0.000000    0.000000    0.000000    
-241.726761    89.282486    49.754940    -3.986095    -0.151874    92.699730    -4.056179    -12.643088    -0.517345    3.161763    -3.599303    0.030807    7.775843    23.668961    -2.776194    -3.393458    -2.079487    -2.876725    17.803617    2.511904    -16.853249    -28.846581    0.834606    9.618980    3.317971    -3.009928    2.392936    -8.053531    -3.036671    -0.604028    -10.234896    2.318229    -9.500656    18.794136    12.465821    6.858785    -2.189317    0.276608    -1.576636    5.485640    0.339388    1.935017    -37.848621    -19.646196    59.406803    0.003828    1.179803    1.652273    -5.376355    5.017859    10.419201    0.000000    0.000000    0.000000    -1.416538    2.927521    -1.897797    3.387885    2.885502    4.350896    3.221235    1.880371    -15.834458    0.000000    0.000000    0.000000    
-241.744995    89.282784    49.723671    -3.981929    -0.167679    92.692650    -4.006157    -12.636452    -0.512277    3.130174    -3.545846    0.028264    7.680214    23.598694    -2.727932    -3.250427    -2.085376    -2.815889    17.670092    2.489465    -16.768206    -29.211330    0.832959    9.586844    3.158777    -2.558193    2.337166    -7.990394    -2.572985    -0.710812    -10.238968    2.266895    -9.413776    19.204721    12.765232    6.663122    -2.102764    0.407504    -1.477327    5.372133    0.459376    1.683388    -37.865334    -19.669588    59.458576    0.003828    1.179803    1.652273    -5.376355    5.017859    10.419201    0.000000    0.000000    0.000000    -1.502259    2.899075    -1.896428    3.486059    2.978117    5.017550    3.201281    1.772091    -16.467588    0.000000    0.000000    0.000000    
-241.758606    89.281548    49.690975    -3.985899    -0.170708    92.654045    -3.982778    -12.656867    -0.498695    3.160644    -3.468587    0.039137    7.483079    23.528511    -2.675556    -3.060860    -2.098665    -2.750510    17.491510    2.962544    -16.323460    -29.203218    0.380342    8.946585    2.880855    -2.753745    2.304905    -8.018135    -2.773688    -0.542178    -10.548906    1.932053    -9.306602    19.958611    13.248953    6.348355    -2.144128    0.425898    -1.419702    5.537657    0.494229    1.959918    -37.858536    -19.677086    59.561626    0.003828    1.179803    1.652273    -5.376355    5.017859    10.419201    0.000000    0.000000    0.000000    -1.571339    2.872535    -1.895393    3.550697    3.019906    5.358952    3.184118    1.717986    -16.766521    0.000000    0.000000    0.000000    
-241.779663    89.281174    49.656265    -3.976223    -0.196419    92.684265    -3.913675    -12.644799    -0.522803    3.126294    -3.399772    0.003949    7.382865    23.541756    -2.645067    -2.937925    -2.278165    -2.709611    17.404196    1.858746    -16.359001    -30.321030    1.466475    9.562713    3.265183    -2.877499    2.287857    -8.180184    -2.904288    -0.536806    -10.620635    1.867769    -9.175158    20.544161    13.628517    6.100012    -2.208867    0.261966    -1.318255    5.424001    0.326839    1.905946    -37.872173    -19.691292    59.582302    0.003828    1.179803    1.652273    -5.376355    5.017859    10.419201    0.000000    0.000000    0.000000    -1.623119    2.855873    -1.894606    3.618549    3.093215    5.842581    3.139136    1.647111    -17.250633    0.000000    0.000000    0.000000    
-241.806763    89.283646    49.625645    -4.004200    -0.196757    92.680298    -3.876875    -12.670766    -0.534799    3.100694    -3.332062    -0.014075    7.230252    23.434074    -2.600071    -2.776961    -2.228630    -2.653956    17.300907    1.763316    -16.225607    -30.651777    1.290905    9.599518    2.736719    -2.444117    2.028554    -7.675178    -2.471119    -0.319498    -10.696177    1.811338    -9.062868    21.115652    13.822274    5.896886    -2.132834    0.156061    -1.255075    5.296240    0.219318    1.865730    -37.891392    -19.723211    59.561611    0.003828    1.179803    1.652273    -5.376355    5.017859    10.419201    0.000000    0.000000    0.000000    -1.664538    2.823593    -1.894197    3.646797    3.072227    5.993496    3.148944    1.648672    -17.397640    0.000000    0.000000    0.000000    
-241.826126    89.285416    49.596081    -4.002141    -0.213039    92.705673    -3.838310    -12.673535    -0.556497    3.089994    -3.248074    -0.042455    7.113108    23.329163    -2.551317    -2.668698    -2.214510    -2.600889    17.187735    1.676090    -16.064404    -31.474060    1.905069    9.523211    3.156906    -3.104248    2.047294    -7.838406    -3.141183    -0.283238    -10.835545    1.708332    -8.980591    21.809404    14.041966    5.677056    -2.082201    0.031063    -1.165282    5.160151    0.091734    1.780551    -37.893272    -19.723167    59.591110    0.003828    1.179803    1.652273    -5.376355    5.017859    10.419201    0.000000    0.000000    0.000000    -1.697944    2.803864    -1.893822    3.678543    3.134567    6.358603    3.153473    1.583462    -17.772989    0.000000    0.000000    0.000000    
